<mxfile host="Electron" agent="Mozilla/5.0 (Windows NT 10.0; Win64; x64) AppleWebKit/537.36 (KHTML, like Gecko) draw.io/26.1.1 Chrome/132.0.6834.210 Electron/34.3.3 Safari/537.36" version="26.1.1">
  <diagram name="Page-1" id="5f0bae14-7c28-e335-631c-24af17079c00">
    <mxGraphModel dx="1354" dy="664" grid="1" gridSize="10" guides="1" tooltips="1" connect="1" arrows="1" fold="1" page="1" pageScale="1" pageWidth="1100" pageHeight="850" background="none" math="0" shadow="0">
      <root>
        <mxCell id="0" />
        <mxCell id="1" parent="0" />
        <mxCell id="39150e848f15840c-1" value="Reports" style="verticalAlign=top;align=left;spacingTop=8;spacingLeft=2;spacingRight=12;shape=cube;size=10;direction=south;fontStyle=4;html=1;rounded=0;shadow=0;comic=0;labelBackgroundColor=none;strokeWidth=1;fontFamily=Verdana;fontSize=12" parent="1" vertex="1">
          <mxGeometry x="80" y="120" width="200" height="320" as="geometry" />
        </mxCell>
        <mxCell id="EHBrAv36b-auMUil9Wdh-1" value="&lt;b&gt;Utium/Management Component Diagram LVL1:&lt;/b&gt;" style="text;html=1;align=center;verticalAlign=middle;resizable=0;points=[];autosize=1;strokeColor=none;fillColor=none;" parent="1" vertex="1">
          <mxGeometry width="290" height="30" as="geometry" />
        </mxCell>
        <mxCell id="EHBrAv36b-auMUil9Wdh-3" value="Order Tracking" style="verticalAlign=top;align=left;spacingTop=8;spacingLeft=2;spacingRight=12;shape=cube;size=10;direction=south;fontStyle=4;html=1;rounded=0;shadow=0;comic=0;labelBackgroundColor=none;strokeWidth=1;fontFamily=Verdana;fontSize=12" parent="1" vertex="1">
          <mxGeometry x="350" y="120" width="330" height="280" as="geometry" />
        </mxCell>
        <mxCell id="EHBrAv36b-auMUil9Wdh-4" value="Placed" style="shape=component;align=left;spacingLeft=36;rounded=0;shadow=0;comic=0;labelBackgroundColor=none;strokeWidth=1;fontFamily=Verdana;fontSize=12;html=1;" parent="1" vertex="1">
          <mxGeometry x="540" y="160" width="120" height="60" as="geometry" />
        </mxCell>
        <mxCell id="EHBrAv36b-auMUil9Wdh-5" value="Finances" style="verticalAlign=top;align=left;spacingTop=8;spacingLeft=2;spacingRight=12;shape=cube;size=10;direction=south;fontStyle=4;html=1;rounded=0;shadow=0;comic=0;labelBackgroundColor=none;strokeWidth=1;fontFamily=Verdana;fontSize=12" parent="1" vertex="1">
          <mxGeometry x="640" y="560" width="320" height="140" as="geometry" />
        </mxCell>
        <mxCell id="EHBrAv36b-auMUil9Wdh-6" value="Data&amp;nbsp;&lt;div&gt;Collection/&lt;/div&gt;&lt;div&gt;Integration&lt;br&gt;&lt;div&gt;&lt;br&gt;&lt;/div&gt;&lt;/div&gt;" style="shape=component;align=left;spacingLeft=36;rounded=0;shadow=0;comic=0;labelBackgroundColor=none;strokeWidth=1;fontFamily=Verdana;fontSize=12;html=1;" parent="1" vertex="1">
          <mxGeometry x="660" y="600" width="120" height="60" as="geometry" />
        </mxCell>
        <mxCell id="EHBrAv36b-auMUil9Wdh-7" value="Inventory" style="verticalAlign=top;align=left;spacingTop=8;spacingLeft=2;spacingRight=12;shape=cube;size=10;direction=south;fontStyle=4;html=1;rounded=0;shadow=0;comic=0;labelBackgroundColor=none;strokeWidth=1;fontFamily=Verdana;fontSize=12" parent="1" vertex="1">
          <mxGeometry x="720" y="120" width="320" height="260" as="geometry" />
        </mxCell>
        <mxCell id="EHBrAv36b-auMUil9Wdh-8" value="AutoSupply" style="shape=component;align=left;spacingLeft=36;rounded=0;shadow=0;comic=0;labelBackgroundColor=none;strokeWidth=1;fontFamily=Verdana;fontSize=12;html=1;" parent="1" vertex="1">
          <mxGeometry x="890" y="220" width="120" height="60" as="geometry" />
        </mxCell>
        <mxCell id="EHBrAv36b-auMUil9Wdh-9" value="Production" style="verticalAlign=top;align=left;spacingTop=8;spacingLeft=2;spacingRight=12;shape=cube;size=10;direction=south;fontStyle=4;html=1;rounded=0;shadow=0;comic=0;labelBackgroundColor=none;strokeWidth=1;fontFamily=Verdana;fontSize=12" parent="1" vertex="1">
          <mxGeometry x="120" y="560" width="320" height="140" as="geometry" />
        </mxCell>
        <mxCell id="EHBrAv36b-auMUil9Wdh-10" value="Interface" style="shape=component;align=left;spacingLeft=36;rounded=0;shadow=0;comic=0;labelBackgroundColor=none;strokeWidth=1;fontFamily=Verdana;fontSize=12;html=1;" parent="1" vertex="1">
          <mxGeometry x="140" y="610" width="120" height="60" as="geometry" />
        </mxCell>
        <mxCell id="EHBrAv36b-auMUil9Wdh-17" value="Generator" style="shape=component;align=left;spacingLeft=36;rounded=0;shadow=0;comic=0;labelBackgroundColor=none;strokeWidth=1;fontFamily=Verdana;fontSize=12;html=1;" parent="1" vertex="1">
          <mxGeometry x="110" y="230" width="110" height="60" as="geometry" />
        </mxCell>
        <mxCell id="EHBrAv36b-auMUil9Wdh-20" value="" style="ellipse;whiteSpace=wrap;html=1;align=center;aspect=fixed;fillColor=none;strokeColor=none;resizable=0;perimeter=centerPerimeter;rotatable=0;allowArrows=0;points=[];outlineConnect=1;" parent="1" vertex="1">
          <mxGeometry x="465" y="340" width="10" height="10" as="geometry" />
        </mxCell>
        <mxCell id="EHBrAv36b-auMUil9Wdh-23" value="" style="ellipse;whiteSpace=wrap;html=1;align=center;aspect=fixed;fillColor=none;strokeColor=none;resizable=0;perimeter=centerPerimeter;rotatable=0;allowArrows=0;points=[];outlineConnect=1;" parent="1" vertex="1">
          <mxGeometry x="465" y="340" width="10" height="10" as="geometry" />
        </mxCell>
        <mxCell id="EHBrAv36b-auMUil9Wdh-26" value="" style="ellipse;whiteSpace=wrap;html=1;align=center;aspect=fixed;fillColor=none;strokeColor=none;resizable=0;perimeter=centerPerimeter;rotatable=0;allowArrows=0;points=[];outlineConnect=1;" parent="1" vertex="1">
          <mxGeometry x="465" y="340" width="10" height="10" as="geometry" />
        </mxCell>
        <mxCell id="EHBrAv36b-auMUil9Wdh-29" value="" style="ellipse;whiteSpace=wrap;html=1;align=center;aspect=fixed;fillColor=none;strokeColor=none;resizable=0;perimeter=centerPerimeter;rotatable=0;allowArrows=0;points=[];outlineConnect=1;" parent="1" vertex="1">
          <mxGeometry x="495" y="380" width="10" height="10" as="geometry" />
        </mxCell>
        <mxCell id="EHBrAv36b-auMUil9Wdh-32" value="" style="ellipse;whiteSpace=wrap;html=1;align=center;aspect=fixed;fillColor=none;strokeColor=none;resizable=0;perimeter=centerPerimeter;rotatable=0;allowArrows=0;points=[];outlineConnect=1;" parent="1" vertex="1">
          <mxGeometry x="495" y="380" width="10" height="10" as="geometry" />
        </mxCell>
        <mxCell id="EHBrAv36b-auMUil9Wdh-35" value="" style="ellipse;whiteSpace=wrap;html=1;align=center;aspect=fixed;fillColor=none;strokeColor=none;resizable=0;perimeter=centerPerimeter;rotatable=0;allowArrows=0;points=[];outlineConnect=1;" parent="1" vertex="1">
          <mxGeometry x="495" y="380" width="10" height="10" as="geometry" />
        </mxCell>
        <mxCell id="EHBrAv36b-auMUil9Wdh-39" value="" style="ellipse;whiteSpace=wrap;html=1;align=center;aspect=fixed;fillColor=none;strokeColor=none;resizable=0;perimeter=centerPerimeter;rotatable=0;allowArrows=0;points=[];outlineConnect=1;" parent="1" vertex="1">
          <mxGeometry x="495" y="380" width="10" height="10" as="geometry" />
        </mxCell>
        <mxCell id="EHBrAv36b-auMUil9Wdh-42" value="" style="ellipse;whiteSpace=wrap;html=1;align=center;aspect=fixed;fillColor=none;strokeColor=none;resizable=0;perimeter=centerPerimeter;rotatable=0;allowArrows=0;points=[];outlineConnect=1;" parent="1" vertex="1">
          <mxGeometry x="495" y="380" width="10" height="10" as="geometry" />
        </mxCell>
        <mxCell id="EHBrAv36b-auMUil9Wdh-43" value="Filled" style="shape=component;align=left;spacingLeft=36;rounded=0;shadow=0;comic=0;labelBackgroundColor=none;strokeWidth=1;fontFamily=Verdana;fontSize=12;html=1;" parent="1" vertex="1">
          <mxGeometry x="360" y="160" width="120" height="60" as="geometry" />
        </mxCell>
        <mxCell id="EHBrAv36b-auMUil9Wdh-44" value="Shipped" style="shape=component;align=left;spacingLeft=36;rounded=0;shadow=0;comic=0;labelBackgroundColor=none;strokeWidth=1;fontFamily=Verdana;fontSize=12;html=1;" parent="1" vertex="1">
          <mxGeometry x="360" y="325" width="120" height="60" as="geometry" />
        </mxCell>
        <mxCell id="EHBrAv36b-auMUil9Wdh-45" value="Returned" style="shape=component;align=left;spacingLeft=36;rounded=0;shadow=0;comic=0;labelBackgroundColor=none;strokeWidth=1;fontFamily=Verdana;fontSize=12;html=1;" parent="1" vertex="1">
          <mxGeometry x="530" y="325" width="120" height="60" as="geometry" />
        </mxCell>
        <mxCell id="EHBrAv36b-auMUil9Wdh-46" value="Controler" style="shape=component;align=left;spacingLeft=36;rounded=0;shadow=0;comic=0;labelBackgroundColor=none;strokeWidth=1;fontFamily=Verdana;fontSize=12;html=1;" parent="1" vertex="1">
          <mxGeometry x="450" y="240" width="120" height="60" as="geometry" />
        </mxCell>
        <mxCell id="EHBrAv36b-auMUil9Wdh-47" value="" style="rounded=0;orthogonalLoop=1;jettySize=auto;html=1;endArrow=halfCircle;endFill=0;endSize=6;strokeWidth=1;sketch=0;exitX=0.25;exitY=0;exitDx=0;exitDy=0;" parent="1" source="EHBrAv36b-auMUil9Wdh-46" edge="1">
          <mxGeometry relative="1" as="geometry">
            <mxPoint x="230" y="425" as="sourcePoint" />
            <mxPoint x="420" y="230" as="targetPoint" />
            <Array as="points">
              <mxPoint x="480" y="230" />
            </Array>
          </mxGeometry>
        </mxCell>
        <mxCell id="EHBrAv36b-auMUil9Wdh-48" value="" style="rounded=0;orthogonalLoop=1;jettySize=auto;html=1;endArrow=oval;endFill=0;sketch=0;sourcePerimeterSpacing=0;targetPerimeterSpacing=0;endSize=10;exitX=0.5;exitY=1;exitDx=0;exitDy=0;" parent="1" source="EHBrAv36b-auMUil9Wdh-43" edge="1">
          <mxGeometry relative="1" as="geometry">
            <mxPoint x="190" y="425" as="sourcePoint" />
            <mxPoint x="420" y="230" as="targetPoint" />
          </mxGeometry>
        </mxCell>
        <mxCell id="EHBrAv36b-auMUil9Wdh-49" value="" style="ellipse;whiteSpace=wrap;html=1;align=center;aspect=fixed;fillColor=none;strokeColor=none;resizable=0;perimeter=centerPerimeter;rotatable=0;allowArrows=0;points=[];outlineConnect=1;" parent="1" vertex="1">
          <mxGeometry x="580" y="560" width="10" height="10" as="geometry" />
        </mxCell>
        <mxCell id="EHBrAv36b-auMUil9Wdh-50" value="" style="rounded=0;orthogonalLoop=1;jettySize=auto;html=1;endArrow=halfCircle;endFill=0;endSize=6;strokeWidth=1;sketch=0;exitX=0.75;exitY=0;exitDx=0;exitDy=0;" parent="1" source="EHBrAv36b-auMUil9Wdh-46" edge="1">
          <mxGeometry relative="1" as="geometry">
            <mxPoint x="230" y="425" as="sourcePoint" />
            <mxPoint x="600" y="230" as="targetPoint" />
            <Array as="points">
              <mxPoint x="540" y="230" />
            </Array>
          </mxGeometry>
        </mxCell>
        <mxCell id="EHBrAv36b-auMUil9Wdh-51" value="" style="rounded=0;orthogonalLoop=1;jettySize=auto;html=1;endArrow=oval;endFill=0;sketch=0;sourcePerimeterSpacing=0;targetPerimeterSpacing=0;endSize=10;exitX=0.5;exitY=1;exitDx=0;exitDy=0;" parent="1" source="EHBrAv36b-auMUil9Wdh-4" edge="1">
          <mxGeometry relative="1" as="geometry">
            <mxPoint x="190" y="425" as="sourcePoint" />
            <mxPoint x="600" y="230" as="targetPoint" />
          </mxGeometry>
        </mxCell>
        <mxCell id="EHBrAv36b-auMUil9Wdh-52" value="" style="ellipse;whiteSpace=wrap;html=1;align=center;aspect=fixed;fillColor=none;strokeColor=none;resizable=0;perimeter=centerPerimeter;rotatable=0;allowArrows=0;points=[];outlineConnect=1;" parent="1" vertex="1">
          <mxGeometry x="580" y="560" width="10" height="10" as="geometry" />
        </mxCell>
        <mxCell id="EHBrAv36b-auMUil9Wdh-53" value="" style="rounded=0;orthogonalLoop=1;jettySize=auto;html=1;endArrow=halfCircle;endFill=0;endSize=6;strokeWidth=1;sketch=0;exitX=1;exitY=0.75;exitDx=0;exitDy=0;" parent="1" source="EHBrAv36b-auMUil9Wdh-46" edge="1">
          <mxGeometry relative="1" as="geometry">
            <mxPoint x="230" y="425" as="sourcePoint" />
            <mxPoint x="620" y="310" as="targetPoint" />
            <Array as="points">
              <mxPoint x="620" y="285" />
            </Array>
          </mxGeometry>
        </mxCell>
        <mxCell id="EHBrAv36b-auMUil9Wdh-54" value="" style="rounded=0;orthogonalLoop=1;jettySize=auto;html=1;endArrow=oval;endFill=0;sketch=0;sourcePerimeterSpacing=0;targetPerimeterSpacing=0;endSize=10;exitX=0.75;exitY=0;exitDx=0;exitDy=0;" parent="1" source="EHBrAv36b-auMUil9Wdh-45" edge="1">
          <mxGeometry relative="1" as="geometry">
            <mxPoint x="190" y="425" as="sourcePoint" />
            <mxPoint x="620" y="310" as="targetPoint" />
          </mxGeometry>
        </mxCell>
        <mxCell id="EHBrAv36b-auMUil9Wdh-55" value="" style="ellipse;whiteSpace=wrap;html=1;align=center;aspect=fixed;fillColor=none;strokeColor=none;resizable=0;perimeter=centerPerimeter;rotatable=0;allowArrows=0;points=[];outlineConnect=1;" parent="1" vertex="1">
          <mxGeometry x="580" y="560" width="10" height="10" as="geometry" />
        </mxCell>
        <mxCell id="EHBrAv36b-auMUil9Wdh-56" value="" style="rounded=0;orthogonalLoop=1;jettySize=auto;html=1;endArrow=halfCircle;endFill=0;endSize=6;strokeWidth=1;sketch=0;exitX=0.25;exitY=1;exitDx=0;exitDy=0;" parent="1" source="EHBrAv36b-auMUil9Wdh-46" edge="1">
          <mxGeometry relative="1" as="geometry">
            <mxPoint x="230" y="425" as="sourcePoint" />
            <mxPoint x="390" y="310" as="targetPoint" />
            <Array as="points">
              <mxPoint x="480" y="310" />
            </Array>
          </mxGeometry>
        </mxCell>
        <mxCell id="EHBrAv36b-auMUil9Wdh-57" value="" style="rounded=0;orthogonalLoop=1;jettySize=auto;html=1;endArrow=oval;endFill=0;sketch=0;sourcePerimeterSpacing=0;targetPerimeterSpacing=0;endSize=10;exitX=0.25;exitY=0;exitDx=0;exitDy=0;" parent="1" source="EHBrAv36b-auMUil9Wdh-44" edge="1">
          <mxGeometry relative="1" as="geometry">
            <mxPoint x="190" y="425" as="sourcePoint" />
            <mxPoint x="390" y="310" as="targetPoint" />
          </mxGeometry>
        </mxCell>
        <mxCell id="EHBrAv36b-auMUil9Wdh-58" value="" style="ellipse;whiteSpace=wrap;html=1;align=center;aspect=fixed;fillColor=none;strokeColor=none;resizable=0;perimeter=centerPerimeter;rotatable=0;allowArrows=0;points=[];outlineConnect=1;" parent="1" vertex="1">
          <mxGeometry x="580" y="560" width="10" height="10" as="geometry" />
        </mxCell>
        <mxCell id="EHBrAv36b-auMUil9Wdh-61" value="" style="ellipse;whiteSpace=wrap;html=1;align=center;aspect=fixed;fillColor=none;strokeColor=none;resizable=0;perimeter=centerPerimeter;rotatable=0;allowArrows=0;points=[];outlineConnect=1;" parent="1" vertex="1">
          <mxGeometry x="580" y="560" width="10" height="10" as="geometry" />
        </mxCell>
        <mxCell id="EHBrAv36b-auMUil9Wdh-62" value="Stock" style="shape=component;align=left;spacingLeft=36;rounded=0;shadow=0;comic=0;labelBackgroundColor=none;strokeWidth=1;fontFamily=Verdana;fontSize=12;html=1;" parent="1" vertex="1">
          <mxGeometry x="740" y="280" width="120" height="60" as="geometry" />
        </mxCell>
        <mxCell id="EHBrAv36b-auMUil9Wdh-64" value="Controler" style="shape=component;align=left;spacingLeft=36;rounded=0;shadow=0;comic=0;labelBackgroundColor=none;strokeWidth=1;fontFamily=Verdana;fontSize=12;html=1;" parent="1" vertex="1">
          <mxGeometry x="740" y="170" width="120" height="60" as="geometry" />
        </mxCell>
        <mxCell id="EHBrAv36b-auMUil9Wdh-65" value="Analysis" style="shape=component;align=left;spacingLeft=36;rounded=0;shadow=0;comic=0;labelBackgroundColor=none;strokeWidth=1;fontFamily=Verdana;fontSize=12;html=1;" parent="1" vertex="1">
          <mxGeometry x="110" y="160" width="110" height="60" as="geometry" />
        </mxCell>
        <mxCell id="EHBrAv36b-auMUil9Wdh-67" value="" style="rounded=0;orthogonalLoop=1;jettySize=auto;html=1;endArrow=halfCircle;endFill=0;endSize=6;strokeWidth=1;sketch=0;exitX=1;exitY=0.5;exitDx=0;exitDy=0;" parent="1" source="EHBrAv36b-auMUil9Wdh-17" edge="1">
          <mxGeometry relative="1" as="geometry">
            <mxPoint x="640" y="425" as="sourcePoint" />
            <mxPoint x="230" y="190" as="targetPoint" />
            <Array as="points">
              <mxPoint x="230" y="260" />
            </Array>
          </mxGeometry>
        </mxCell>
        <mxCell id="EHBrAv36b-auMUil9Wdh-68" value="" style="rounded=0;orthogonalLoop=1;jettySize=auto;html=1;endArrow=oval;endFill=0;sketch=0;sourcePerimeterSpacing=0;targetPerimeterSpacing=0;endSize=10;exitX=1;exitY=0.5;exitDx=0;exitDy=0;" parent="1" source="EHBrAv36b-auMUil9Wdh-65" edge="1">
          <mxGeometry relative="1" as="geometry">
            <mxPoint x="600" y="425" as="sourcePoint" />
            <mxPoint x="230" y="190" as="targetPoint" />
          </mxGeometry>
        </mxCell>
        <mxCell id="EHBrAv36b-auMUil9Wdh-69" value="" style="ellipse;whiteSpace=wrap;html=1;align=center;aspect=fixed;fillColor=none;strokeColor=none;resizable=0;perimeter=centerPerimeter;rotatable=0;allowArrows=0;points=[];outlineConnect=1;" parent="1" vertex="1">
          <mxGeometry x="635" y="420" width="10" height="10" as="geometry" />
        </mxCell>
        <mxCell id="EHBrAv36b-auMUil9Wdh-70" value="" style="rounded=0;orthogonalLoop=1;jettySize=auto;html=1;endArrow=halfCircle;endFill=0;endSize=6;strokeWidth=1;sketch=0;exitX=1;exitY=0.25;exitDx=0;exitDy=0;" parent="1" source="EHBrAv36b-auMUil9Wdh-64" edge="1">
          <mxGeometry relative="1" as="geometry">
            <mxPoint x="630" y="415" as="sourcePoint" />
            <mxPoint x="930" y="200" as="targetPoint" />
            <Array as="points">
              <mxPoint x="880" y="185" />
              <mxPoint x="930" y="185" />
            </Array>
          </mxGeometry>
        </mxCell>
        <mxCell id="EHBrAv36b-auMUil9Wdh-71" value="" style="rounded=0;orthogonalLoop=1;jettySize=auto;html=1;endArrow=oval;endFill=0;sketch=0;sourcePerimeterSpacing=0;targetPerimeterSpacing=0;endSize=10;" parent="1" edge="1">
          <mxGeometry relative="1" as="geometry">
            <mxPoint x="930" y="218" as="sourcePoint" />
            <mxPoint x="930" y="200" as="targetPoint" />
          </mxGeometry>
        </mxCell>
        <mxCell id="EHBrAv36b-auMUil9Wdh-72" value="" style="ellipse;whiteSpace=wrap;html=1;align=center;aspect=fixed;fillColor=none;strokeColor=none;resizable=0;perimeter=centerPerimeter;rotatable=0;allowArrows=0;points=[];outlineConnect=1;" parent="1" vertex="1">
          <mxGeometry x="635" y="420" width="10" height="10" as="geometry" />
        </mxCell>
        <mxCell id="EHBrAv36b-auMUil9Wdh-74" value="" style="rounded=0;orthogonalLoop=1;jettySize=auto;html=1;endArrow=halfCircle;endFill=0;endSize=6;strokeWidth=1;sketch=0;" parent="1" edge="1">
          <mxGeometry relative="1" as="geometry">
            <mxPoint x="925" y="280" as="sourcePoint" />
            <mxPoint x="830" y="270" as="targetPoint" />
            <Array as="points">
              <mxPoint x="925" y="300" />
              <mxPoint x="880" y="300" />
              <mxPoint x="880" y="270" />
            </Array>
          </mxGeometry>
        </mxCell>
        <mxCell id="EHBrAv36b-auMUil9Wdh-75" value="" style="rounded=0;orthogonalLoop=1;jettySize=auto;html=1;endArrow=oval;endFill=0;sketch=0;sourcePerimeterSpacing=0;targetPerimeterSpacing=0;endSize=10;exitX=0.75;exitY=0;exitDx=0;exitDy=0;" parent="1" source="EHBrAv36b-auMUil9Wdh-62" edge="1">
          <mxGeometry relative="1" as="geometry">
            <mxPoint x="590" y="415" as="sourcePoint" />
            <mxPoint x="830" y="270" as="targetPoint" />
          </mxGeometry>
        </mxCell>
        <mxCell id="EHBrAv36b-auMUil9Wdh-76" value="" style="ellipse;whiteSpace=wrap;html=1;align=center;aspect=fixed;fillColor=none;strokeColor=none;resizable=0;perimeter=centerPerimeter;rotatable=0;allowArrows=0;points=[];outlineConnect=1;" parent="1" vertex="1">
          <mxGeometry x="635" y="420" width="10" height="10" as="geometry" />
        </mxCell>
        <mxCell id="EHBrAv36b-auMUil9Wdh-77" value="" style="rounded=0;orthogonalLoop=1;jettySize=auto;html=1;endArrow=halfCircle;endFill=0;endSize=6;strokeWidth=1;sketch=0;exitX=0.25;exitY=1;exitDx=0;exitDy=0;" parent="1" source="EHBrAv36b-auMUil9Wdh-64" edge="1">
          <mxGeometry relative="1" as="geometry">
            <mxPoint x="630" y="415" as="sourcePoint" />
            <mxPoint x="770" y="270" as="targetPoint" />
          </mxGeometry>
        </mxCell>
        <mxCell id="EHBrAv36b-auMUil9Wdh-78" value="" style="rounded=0;orthogonalLoop=1;jettySize=auto;html=1;endArrow=oval;endFill=0;sketch=0;sourcePerimeterSpacing=0;targetPerimeterSpacing=0;endSize=10;exitX=0.25;exitY=0;exitDx=0;exitDy=0;" parent="1" source="EHBrAv36b-auMUil9Wdh-62" edge="1">
          <mxGeometry relative="1" as="geometry">
            <mxPoint x="590" y="415" as="sourcePoint" />
            <mxPoint x="770" y="270" as="targetPoint" />
          </mxGeometry>
        </mxCell>
        <mxCell id="EHBrAv36b-auMUil9Wdh-79" value="" style="ellipse;whiteSpace=wrap;html=1;align=center;aspect=fixed;fillColor=none;strokeColor=none;resizable=0;perimeter=centerPerimeter;rotatable=0;allowArrows=0;points=[];outlineConnect=1;" parent="1" vertex="1">
          <mxGeometry x="635" y="420" width="10" height="10" as="geometry" />
        </mxCell>
        <mxCell id="EHBrAv36b-auMUil9Wdh-82" value="" style="ellipse;whiteSpace=wrap;html=1;align=center;aspect=fixed;fillColor=none;strokeColor=none;resizable=0;perimeter=centerPerimeter;rotatable=0;allowArrows=0;points=[];outlineConnect=1;" parent="1" vertex="1">
          <mxGeometry x="635" y="320" width="10" height="10" as="geometry" />
        </mxCell>
        <mxCell id="EHBrAv36b-auMUil9Wdh-85" value="" style="ellipse;whiteSpace=wrap;html=1;align=center;aspect=fixed;fillColor=none;strokeColor=none;resizable=0;perimeter=centerPerimeter;rotatable=0;allowArrows=0;points=[];outlineConnect=1;" parent="1" vertex="1">
          <mxGeometry x="635" y="320" width="10" height="10" as="geometry" />
        </mxCell>
        <mxCell id="EHBrAv36b-auMUil9Wdh-87" value="Accounting" style="shape=component;align=left;spacingLeft=36;rounded=0;shadow=0;comic=0;labelBackgroundColor=none;strokeWidth=1;fontFamily=Verdana;fontSize=12;html=1;" parent="1" vertex="1">
          <mxGeometry x="800" y="600" width="120" height="60" as="geometry" />
        </mxCell>
        <mxCell id="EHBrAv36b-auMUil9Wdh-88" value="Interface" style="shape=component;align=left;spacingLeft=36;rounded=0;shadow=0;comic=0;labelBackgroundColor=none;strokeWidth=1;fontFamily=Verdana;fontSize=12;html=1;" parent="1" vertex="1">
          <mxGeometry x="110" y="300" width="110" height="60" as="geometry" />
        </mxCell>
        <mxCell id="EHBrAv36b-auMUil9Wdh-89" value="" style="rounded=0;orthogonalLoop=1;jettySize=auto;html=1;endArrow=halfCircle;endFill=0;endSize=6;strokeWidth=1;sketch=0;exitX=1;exitY=0.5;exitDx=0;exitDy=0;" parent="1" source="EHBrAv36b-auMUil9Wdh-88" edge="1">
          <mxGeometry relative="1" as="geometry">
            <mxPoint x="640" y="325" as="sourcePoint" />
            <mxPoint x="240" y="280" as="targetPoint" />
            <Array as="points">
              <mxPoint x="240" y="330" />
            </Array>
          </mxGeometry>
        </mxCell>
        <mxCell id="EHBrAv36b-auMUil9Wdh-90" value="" style="rounded=0;orthogonalLoop=1;jettySize=auto;html=1;endArrow=oval;endFill=0;sketch=0;sourcePerimeterSpacing=0;targetPerimeterSpacing=0;endSize=10;exitX=1;exitY=0.833;exitDx=0;exitDy=0;exitPerimeter=0;" parent="1" source="EHBrAv36b-auMUil9Wdh-17" edge="1">
          <mxGeometry relative="1" as="geometry">
            <mxPoint x="600" y="325" as="sourcePoint" />
            <mxPoint x="240" y="280" as="targetPoint" />
          </mxGeometry>
        </mxCell>
        <mxCell id="EHBrAv36b-auMUil9Wdh-91" value="" style="ellipse;whiteSpace=wrap;html=1;align=center;aspect=fixed;fillColor=none;strokeColor=none;resizable=0;perimeter=centerPerimeter;rotatable=0;allowArrows=0;points=[];outlineConnect=1;" parent="1" vertex="1">
          <mxGeometry x="635" y="320" width="10" height="10" as="geometry" />
        </mxCell>
        <mxCell id="EHBrAv36b-auMUil9Wdh-92" value="Alerts" style="shape=component;align=left;spacingLeft=36;rounded=0;shadow=0;comic=0;labelBackgroundColor=none;strokeWidth=1;fontFamily=Verdana;fontSize=12;html=1;" parent="1" vertex="1">
          <mxGeometry x="110" y="370" width="110" height="60" as="geometry" />
        </mxCell>
        <mxCell id="EHBrAv36b-auMUil9Wdh-93" value="" style="rounded=0;orthogonalLoop=1;jettySize=auto;html=1;endArrow=halfCircle;endFill=0;endSize=6;strokeWidth=1;sketch=0;exitX=1;exitY=0.75;exitDx=0;exitDy=0;" parent="1" source="EHBrAv36b-auMUil9Wdh-88" edge="1">
          <mxGeometry relative="1" as="geometry">
            <mxPoint x="640" y="425" as="sourcePoint" />
            <mxPoint x="240" y="400" as="targetPoint" />
            <Array as="points">
              <mxPoint x="240" y="345" />
            </Array>
          </mxGeometry>
        </mxCell>
        <mxCell id="EHBrAv36b-auMUil9Wdh-94" value="" style="rounded=0;orthogonalLoop=1;jettySize=auto;html=1;endArrow=oval;endFill=0;sketch=0;sourcePerimeterSpacing=0;targetPerimeterSpacing=0;endSize=10;" parent="1" edge="1">
          <mxGeometry relative="1" as="geometry">
            <mxPoint x="220" y="400" as="sourcePoint" />
            <mxPoint x="240" y="400" as="targetPoint" />
          </mxGeometry>
        </mxCell>
        <mxCell id="EHBrAv36b-auMUil9Wdh-95" value="" style="ellipse;whiteSpace=wrap;html=1;align=center;aspect=fixed;fillColor=none;strokeColor=none;resizable=0;perimeter=centerPerimeter;rotatable=0;allowArrows=0;points=[];outlineConnect=1;" parent="1" vertex="1">
          <mxGeometry x="635" y="420" width="10" height="10" as="geometry" />
        </mxCell>
        <mxCell id="EHBrAv36b-auMUil9Wdh-96" value="" style="rounded=0;orthogonalLoop=1;jettySize=auto;html=1;endArrow=halfCircle;endFill=0;endSize=6;strokeWidth=1;sketch=0;exitX=0;exitY=0.3;exitDx=0;exitDy=0;" parent="1" source="EHBrAv36b-auMUil9Wdh-92" edge="1">
          <mxGeometry relative="1" as="geometry">
            <mxPoint x="640" y="425" as="sourcePoint" />
            <mxPoint x="100" y="270" as="targetPoint" />
            <Array as="points">
              <mxPoint x="100" y="388" />
            </Array>
          </mxGeometry>
        </mxCell>
        <mxCell id="EHBrAv36b-auMUil9Wdh-97" value="" style="rounded=0;orthogonalLoop=1;jettySize=auto;html=1;endArrow=oval;endFill=0;sketch=0;sourcePerimeterSpacing=0;targetPerimeterSpacing=0;endSize=10;exitX=0;exitY=0.7;exitDx=0;exitDy=0;" parent="1" source="EHBrAv36b-auMUil9Wdh-17" edge="1">
          <mxGeometry relative="1" as="geometry">
            <mxPoint x="600" y="425" as="sourcePoint" />
            <mxPoint x="100" y="272" as="targetPoint" />
          </mxGeometry>
        </mxCell>
        <mxCell id="EHBrAv36b-auMUil9Wdh-98" value="" style="ellipse;whiteSpace=wrap;html=1;align=center;aspect=fixed;fillColor=none;strokeColor=none;resizable=0;perimeter=centerPerimeter;rotatable=0;allowArrows=0;points=[];outlineConnect=1;" parent="1" vertex="1">
          <mxGeometry x="635" y="420" width="10" height="10" as="geometry" />
        </mxCell>
        <mxCell id="EHBrAv36b-auMUil9Wdh-99" value="" style="rounded=0;orthogonalLoop=1;jettySize=auto;html=1;endArrow=halfCircle;endFill=0;endSize=6;strokeWidth=1;sketch=0;exitX=0.5;exitY=1;exitDx=0;exitDy=0;" parent="1" source="EHBrAv36b-auMUil9Wdh-87" edge="1">
          <mxGeometry relative="1" as="geometry">
            <mxPoint x="550" y="685" as="sourcePoint" />
            <mxPoint x="720" y="670" as="targetPoint" />
            <Array as="points">
              <mxPoint x="860" y="670" />
            </Array>
          </mxGeometry>
        </mxCell>
        <mxCell id="EHBrAv36b-auMUil9Wdh-100" value="" style="rounded=0;orthogonalLoop=1;jettySize=auto;html=1;endArrow=oval;endFill=0;sketch=0;sourcePerimeterSpacing=0;targetPerimeterSpacing=0;endSize=10;exitX=0.5;exitY=1;exitDx=0;exitDy=0;" parent="1" source="EHBrAv36b-auMUil9Wdh-6" edge="1">
          <mxGeometry relative="1" as="geometry">
            <mxPoint x="510" y="685" as="sourcePoint" />
            <mxPoint x="720" y="670" as="targetPoint" />
          </mxGeometry>
        </mxCell>
        <mxCell id="EHBrAv36b-auMUil9Wdh-101" value="" style="ellipse;whiteSpace=wrap;html=1;align=center;aspect=fixed;fillColor=none;strokeColor=none;resizable=0;perimeter=centerPerimeter;rotatable=0;allowArrows=0;points=[];outlineConnect=1;" parent="1" vertex="1">
          <mxGeometry x="445" y="600" width="10" height="10" as="geometry" />
        </mxCell>
        <mxCell id="EHBrAv36b-auMUil9Wdh-102" value="Stock&amp;nbsp;&lt;div&gt;Updater&lt;/div&gt;" style="shape=component;align=left;spacingLeft=36;rounded=0;shadow=0;comic=0;labelBackgroundColor=none;strokeWidth=1;fontFamily=Verdana;fontSize=12;html=1;" parent="1" vertex="1">
          <mxGeometry x="285" y="610" width="120" height="60" as="geometry" />
        </mxCell>
        <mxCell id="EHBrAv36b-auMUil9Wdh-103" value="" style="rounded=0;orthogonalLoop=1;jettySize=auto;html=1;endArrow=halfCircle;endFill=0;endSize=6;strokeWidth=1;sketch=0;exitX=0.25;exitY=1;exitDx=0;exitDy=0;" parent="1" source="EHBrAv36b-auMUil9Wdh-102" edge="1">
          <mxGeometry relative="1" as="geometry">
            <mxPoint x="470" y="505" as="sourcePoint" />
            <mxPoint x="230" y="680" as="targetPoint" />
            <Array as="points">
              <mxPoint x="315" y="680" />
            </Array>
          </mxGeometry>
        </mxCell>
        <mxCell id="EHBrAv36b-auMUil9Wdh-104" value="" style="rounded=0;orthogonalLoop=1;jettySize=auto;html=1;endArrow=oval;endFill=0;sketch=0;sourcePerimeterSpacing=0;targetPerimeterSpacing=0;endSize=10;exitX=0.75;exitY=1;exitDx=0;exitDy=0;" parent="1" source="EHBrAv36b-auMUil9Wdh-10" edge="1">
          <mxGeometry relative="1" as="geometry">
            <mxPoint x="430" y="505" as="sourcePoint" />
            <mxPoint x="230" y="680" as="targetPoint" />
          </mxGeometry>
        </mxCell>
        <mxCell id="EHBrAv36b-auMUil9Wdh-105" value="" style="ellipse;whiteSpace=wrap;html=1;align=center;aspect=fixed;fillColor=none;strokeColor=none;resizable=0;perimeter=centerPerimeter;rotatable=0;allowArrows=0;points=[];outlineConnect=1;" parent="1" vertex="1">
          <mxGeometry x="635" y="420" width="10" height="10" as="geometry" />
        </mxCell>
        <mxCell id="EHBrAv36b-auMUil9Wdh-106" value="" style="rounded=0;orthogonalLoop=1;jettySize=auto;html=1;endArrow=halfCircle;endFill=0;endSize=6;strokeWidth=1;sketch=0;exitX=1;exitY=0.75;exitDx=0;exitDy=0;" parent="1" source="EHBrAv36b-auMUil9Wdh-43" edge="1">
          <mxGeometry relative="1" as="geometry">
            <mxPoint x="590" y="295" as="sourcePoint" />
            <mxPoint x="500" y="230" as="targetPoint" />
            <Array as="points">
              <mxPoint x="500" y="205" />
            </Array>
          </mxGeometry>
        </mxCell>
        <mxCell id="EHBrAv36b-auMUil9Wdh-107" value="" style="rounded=0;orthogonalLoop=1;jettySize=auto;html=1;endArrow=oval;endFill=0;sketch=0;sourcePerimeterSpacing=0;targetPerimeterSpacing=0;endSize=10;" parent="1" edge="1">
          <mxGeometry relative="1" as="geometry">
            <mxPoint x="500" y="240" as="sourcePoint" />
            <mxPoint x="500" y="230" as="targetPoint" />
          </mxGeometry>
        </mxCell>
        <mxCell id="EHBrAv36b-auMUil9Wdh-108" value="" style="ellipse;whiteSpace=wrap;html=1;align=center;aspect=fixed;fillColor=none;strokeColor=none;resizable=0;perimeter=centerPerimeter;rotatable=0;allowArrows=0;points=[];outlineConnect=1;" parent="1" vertex="1">
          <mxGeometry x="565" y="290" width="10" height="10" as="geometry" />
        </mxCell>
        <mxCell id="EHBrAv36b-auMUil9Wdh-109" value="" style="rounded=0;orthogonalLoop=1;jettySize=auto;html=1;endArrow=halfCircle;endFill=0;endSize=6;strokeWidth=1;sketch=0;exitX=0.75;exitY=1;exitDx=0;exitDy=0;" parent="1" source="EHBrAv36b-auMUil9Wdh-4" edge="1">
          <mxGeometry relative="1" as="geometry">
            <mxPoint x="590" y="295" as="sourcePoint" />
            <mxPoint x="580" y="260" as="targetPoint" />
            <Array as="points">
              <mxPoint x="630" y="260" />
            </Array>
          </mxGeometry>
        </mxCell>
        <mxCell id="EHBrAv36b-auMUil9Wdh-110" value="" style="rounded=0;orthogonalLoop=1;jettySize=auto;html=1;endArrow=oval;endFill=0;sketch=0;sourcePerimeterSpacing=0;targetPerimeterSpacing=0;endSize=10;exitX=1;exitY=0.333;exitDx=0;exitDy=0;exitPerimeter=0;" parent="1" source="EHBrAv36b-auMUil9Wdh-46" edge="1">
          <mxGeometry relative="1" as="geometry">
            <mxPoint x="550" y="295" as="sourcePoint" />
            <mxPoint x="580" y="260" as="targetPoint" />
          </mxGeometry>
        </mxCell>
        <mxCell id="EHBrAv36b-auMUil9Wdh-111" value="" style="ellipse;whiteSpace=wrap;html=1;align=center;aspect=fixed;fillColor=none;strokeColor=none;resizable=0;perimeter=centerPerimeter;rotatable=0;allowArrows=0;points=[];outlineConnect=1;" parent="1" vertex="1">
          <mxGeometry x="565" y="290" width="10" height="10" as="geometry" />
        </mxCell>
        <mxCell id="EHBrAv36b-auMUil9Wdh-112" value="" style="rounded=0;orthogonalLoop=1;jettySize=auto;html=1;endArrow=halfCircle;endFill=0;endSize=6;strokeWidth=1;sketch=0;exitX=0.25;exitY=0;exitDx=0;exitDy=0;" parent="1" source="EHBrAv36b-auMUil9Wdh-45" edge="1">
          <mxGeometry relative="1" as="geometry">
            <mxPoint x="590" y="295" as="sourcePoint" />
            <mxPoint x="540" y="310" as="targetPoint" />
            <Array as="points">
              <mxPoint x="560" y="310" />
            </Array>
          </mxGeometry>
        </mxCell>
        <mxCell id="EHBrAv36b-auMUil9Wdh-113" value="" style="rounded=0;orthogonalLoop=1;jettySize=auto;html=1;endArrow=oval;endFill=0;sketch=0;sourcePerimeterSpacing=0;targetPerimeterSpacing=0;endSize=10;exitX=0.75;exitY=1;exitDx=0;exitDy=0;" parent="1" source="EHBrAv36b-auMUil9Wdh-46" edge="1">
          <mxGeometry relative="1" as="geometry">
            <mxPoint x="550" y="295" as="sourcePoint" />
            <mxPoint x="540" y="310" as="targetPoint" />
          </mxGeometry>
        </mxCell>
        <mxCell id="EHBrAv36b-auMUil9Wdh-114" value="" style="ellipse;whiteSpace=wrap;html=1;align=center;aspect=fixed;fillColor=none;strokeColor=none;resizable=0;perimeter=centerPerimeter;rotatable=0;allowArrows=0;points=[];outlineConnect=1;" parent="1" vertex="1">
          <mxGeometry x="565" y="290" width="10" height="10" as="geometry" />
        </mxCell>
        <mxCell id="EHBrAv36b-auMUil9Wdh-115" value="" style="rounded=0;orthogonalLoop=1;jettySize=auto;html=1;endArrow=halfCircle;endFill=0;endSize=6;strokeWidth=1;sketch=0;exitX=1;exitY=0.25;exitDx=0;exitDy=0;" parent="1" source="EHBrAv36b-auMUil9Wdh-44" edge="1">
          <mxGeometry relative="1" as="geometry">
            <mxPoint x="590" y="295" as="sourcePoint" />
            <mxPoint x="490" y="310" as="targetPoint" />
            <Array as="points">
              <mxPoint x="490" y="340" />
            </Array>
          </mxGeometry>
        </mxCell>
        <mxCell id="EHBrAv36b-auMUil9Wdh-116" value="" style="rounded=0;orthogonalLoop=1;jettySize=auto;html=1;endArrow=oval;endFill=0;sketch=0;sourcePerimeterSpacing=0;targetPerimeterSpacing=0;endSize=10;exitX=0.335;exitY=0.995;exitDx=0;exitDy=0;exitPerimeter=0;" parent="1" source="EHBrAv36b-auMUil9Wdh-46" edge="1">
          <mxGeometry relative="1" as="geometry">
            <mxPoint x="550" y="295" as="sourcePoint" />
            <mxPoint x="490" y="310" as="targetPoint" />
          </mxGeometry>
        </mxCell>
        <mxCell id="EHBrAv36b-auMUil9Wdh-117" value="" style="ellipse;whiteSpace=wrap;html=1;align=center;aspect=fixed;fillColor=none;strokeColor=none;resizable=0;perimeter=centerPerimeter;rotatable=0;allowArrows=0;points=[];outlineConnect=1;" parent="1" vertex="1">
          <mxGeometry x="565" y="290" width="10" height="10" as="geometry" />
        </mxCell>
        <mxCell id="EHBrAv36b-auMUil9Wdh-118" value="" style="rounded=0;orthogonalLoop=1;jettySize=auto;html=1;endArrow=halfCircle;endFill=0;endSize=6;strokeWidth=1;sketch=0;" parent="1" source="EHBrAv36b-auMUil9Wdh-62" edge="1">
          <mxGeometry relative="1" as="geometry">
            <mxPoint x="590" y="395" as="sourcePoint" />
            <mxPoint x="800" y="240" as="targetPoint" />
          </mxGeometry>
        </mxCell>
        <mxCell id="EHBrAv36b-auMUil9Wdh-119" value="" style="rounded=0;orthogonalLoop=1;jettySize=auto;html=1;endArrow=oval;endFill=0;sketch=0;sourcePerimeterSpacing=0;targetPerimeterSpacing=0;endSize=10;exitX=0.5;exitY=1;exitDx=0;exitDy=0;" parent="1" source="EHBrAv36b-auMUil9Wdh-64" edge="1">
          <mxGeometry relative="1" as="geometry">
            <mxPoint x="550" y="395" as="sourcePoint" />
            <mxPoint x="800" y="240" as="targetPoint" />
          </mxGeometry>
        </mxCell>
        <mxCell id="EHBrAv36b-auMUil9Wdh-120" value="" style="ellipse;whiteSpace=wrap;html=1;align=center;aspect=fixed;fillColor=none;strokeColor=none;resizable=0;perimeter=centerPerimeter;rotatable=0;allowArrows=0;points=[];outlineConnect=1;" parent="1" vertex="1">
          <mxGeometry x="565" y="390" width="10" height="10" as="geometry" />
        </mxCell>
        <mxCell id="EHBrAv36b-auMUil9Wdh-121" value="" style="rounded=0;orthogonalLoop=1;jettySize=auto;html=1;endArrow=halfCircle;endFill=0;endSize=6;strokeWidth=1;sketch=0;exitX=0.75;exitY=0;exitDx=0;exitDy=0;" parent="1" source="EHBrAv36b-auMUil9Wdh-65" edge="1">
          <mxGeometry relative="1" as="geometry">
            <mxPoint x="590" y="395" as="sourcePoint" />
            <mxPoint x="830" y="100" as="targetPoint" />
            <Array as="points">
              <mxPoint x="193" y="100" />
            </Array>
          </mxGeometry>
        </mxCell>
        <mxCell id="EHBrAv36b-auMUil9Wdh-122" value="" style="rounded=0;orthogonalLoop=1;jettySize=auto;html=1;endArrow=oval;endFill=0;sketch=0;sourcePerimeterSpacing=0;targetPerimeterSpacing=0;endSize=10;exitX=0.75;exitY=0;exitDx=0;exitDy=0;" parent="1" source="EHBrAv36b-auMUil9Wdh-64" edge="1">
          <mxGeometry relative="1" as="geometry">
            <mxPoint x="550" y="395" as="sourcePoint" />
            <mxPoint x="830" y="100" as="targetPoint" />
          </mxGeometry>
        </mxCell>
        <mxCell id="EHBrAv36b-auMUil9Wdh-123" value="" style="ellipse;whiteSpace=wrap;html=1;align=center;aspect=fixed;fillColor=none;strokeColor=none;resizable=0;perimeter=centerPerimeter;rotatable=0;allowArrows=0;points=[];outlineConnect=1;" parent="1" vertex="1">
          <mxGeometry x="565" y="390" width="10" height="10" as="geometry" />
        </mxCell>
        <mxCell id="EHBrAv36b-auMUil9Wdh-125" value="" style="rounded=0;orthogonalLoop=1;jettySize=auto;html=1;endArrow=halfCircle;endFill=0;endSize=6;strokeWidth=1;sketch=0;exitX=1;exitY=0.25;exitDx=0;exitDy=0;" parent="1" source="EHBrAv36b-auMUil9Wdh-65" edge="1">
          <mxGeometry relative="1" as="geometry">
            <mxPoint x="590" y="395" as="sourcePoint" />
            <mxPoint x="320" y="240" as="targetPoint" />
            <Array as="points">
              <mxPoint x="320" y="175" />
            </Array>
          </mxGeometry>
        </mxCell>
        <mxCell id="EHBrAv36b-auMUil9Wdh-126" value="" style="rounded=0;orthogonalLoop=1;jettySize=auto;html=1;endArrow=oval;endFill=0;sketch=0;sourcePerimeterSpacing=0;targetPerimeterSpacing=0;endSize=10;exitX=0;exitY=0.3;exitDx=0;exitDy=0;" parent="1" source="EHBrAv36b-auMUil9Wdh-46" edge="1">
          <mxGeometry relative="1" as="geometry">
            <mxPoint x="550" y="395" as="sourcePoint" />
            <mxPoint x="320" y="240" as="targetPoint" />
            <Array as="points">
              <mxPoint x="320" y="258" />
            </Array>
          </mxGeometry>
        </mxCell>
        <mxCell id="EHBrAv36b-auMUil9Wdh-127" value="" style="ellipse;whiteSpace=wrap;html=1;align=center;aspect=fixed;fillColor=none;strokeColor=none;resizable=0;perimeter=centerPerimeter;rotatable=0;allowArrows=0;points=[];outlineConnect=1;" parent="1" vertex="1">
          <mxGeometry x="565" y="390" width="10" height="10" as="geometry" />
        </mxCell>
        <mxCell id="EHBrAv36b-auMUil9Wdh-130" value="" style="rounded=0;orthogonalLoop=1;jettySize=auto;html=1;endArrow=halfCircle;endFill=0;endSize=6;strokeWidth=1;sketch=0;exitX=0;exitY=0.3;exitDx=0;exitDy=0;" parent="1" source="EHBrAv36b-auMUil9Wdh-65" edge="1">
          <mxGeometry relative="1" as="geometry">
            <mxPoint x="590" y="395" as="sourcePoint" />
            <mxPoint x="860" y="520" as="targetPoint" />
            <Array as="points">
              <mxPoint x="40" y="178" />
              <mxPoint x="40" y="520" />
            </Array>
          </mxGeometry>
        </mxCell>
        <mxCell id="EHBrAv36b-auMUil9Wdh-131" value="" style="rounded=0;orthogonalLoop=1;jettySize=auto;html=1;endArrow=oval;endFill=0;sketch=0;sourcePerimeterSpacing=0;targetPerimeterSpacing=0;endSize=10;exitX=0.5;exitY=0;exitDx=0;exitDy=0;" parent="1" source="EHBrAv36b-auMUil9Wdh-87" edge="1">
          <mxGeometry relative="1" as="geometry">
            <mxPoint x="550" y="395" as="sourcePoint" />
            <mxPoint x="860" y="520" as="targetPoint" />
          </mxGeometry>
        </mxCell>
        <mxCell id="EHBrAv36b-auMUil9Wdh-132" value="" style="ellipse;whiteSpace=wrap;html=1;align=center;aspect=fixed;fillColor=none;strokeColor=none;resizable=0;perimeter=centerPerimeter;rotatable=0;allowArrows=0;points=[];outlineConnect=1;" parent="1" vertex="1">
          <mxGeometry x="565" y="390" width="10" height="10" as="geometry" />
        </mxCell>
        <mxCell id="EHBrAv36b-auMUil9Wdh-133" value="" style="rounded=0;orthogonalLoop=1;jettySize=auto;html=1;endArrow=halfCircle;endFill=0;endSize=6;strokeWidth=1;sketch=0;exitX=0.25;exitY=1;exitDx=0;exitDy=0;" parent="1" source="EHBrAv36b-auMUil9Wdh-62" edge="1">
          <mxGeometry relative="1" as="geometry">
            <mxPoint x="590" y="395" as="sourcePoint" />
            <mxPoint x="480" y="600" as="targetPoint" />
            <Array as="points">
              <mxPoint x="770" y="450" />
              <mxPoint x="480" y="450" />
            </Array>
          </mxGeometry>
        </mxCell>
        <mxCell id="EHBrAv36b-auMUil9Wdh-134" value="" style="rounded=0;orthogonalLoop=1;jettySize=auto;html=1;endArrow=oval;endFill=0;sketch=0;sourcePerimeterSpacing=0;targetPerimeterSpacing=0;endSize=10;exitX=1;exitY=0.25;exitDx=0;exitDy=0;" parent="1" source="EHBrAv36b-auMUil9Wdh-102" edge="1">
          <mxGeometry relative="1" as="geometry">
            <mxPoint x="550" y="395" as="sourcePoint" />
            <mxPoint x="480" y="600" as="targetPoint" />
            <Array as="points">
              <mxPoint x="480" y="625" />
            </Array>
          </mxGeometry>
        </mxCell>
        <mxCell id="EHBrAv36b-auMUil9Wdh-135" value="" style="ellipse;whiteSpace=wrap;html=1;align=center;aspect=fixed;fillColor=none;strokeColor=none;resizable=0;perimeter=centerPerimeter;rotatable=0;allowArrows=0;points=[];outlineConnect=1;" parent="1" vertex="1">
          <mxGeometry x="565" y="390" width="10" height="10" as="geometry" />
        </mxCell>
        <mxCell id="EHBrAv36b-auMUil9Wdh-136" value="" style="rounded=0;orthogonalLoop=1;jettySize=auto;html=1;endArrow=halfCircle;endFill=0;endSize=6;strokeWidth=1;sketch=0;exitX=0.5;exitY=0;exitDx=0;exitDy=0;" parent="1" source="EHBrAv36b-auMUil9Wdh-6" edge="1">
          <mxGeometry relative="1" as="geometry">
            <mxPoint x="590" y="395" as="sourcePoint" />
            <mxPoint x="510" y="430" as="targetPoint" />
            <Array as="points">
              <mxPoint x="720" y="490" />
              <mxPoint x="510" y="490" />
            </Array>
          </mxGeometry>
        </mxCell>
        <mxCell id="EHBrAv36b-auMUil9Wdh-137" value="" style="rounded=0;orthogonalLoop=1;jettySize=auto;html=1;endArrow=oval;endFill=0;sketch=0;sourcePerimeterSpacing=0;targetPerimeterSpacing=0;endSize=10;exitX=0.5;exitY=1;exitDx=0;exitDy=0;" parent="1" source="EHBrAv36b-auMUil9Wdh-46" edge="1">
          <mxGeometry relative="1" as="geometry">
            <mxPoint x="550" y="395" as="sourcePoint" />
            <mxPoint x="510" y="430" as="targetPoint" />
          </mxGeometry>
        </mxCell>
        <mxCell id="EHBrAv36b-auMUil9Wdh-138" value="" style="ellipse;whiteSpace=wrap;html=1;align=center;aspect=fixed;fillColor=none;strokeColor=none;resizable=0;perimeter=centerPerimeter;rotatable=0;allowArrows=0;points=[];outlineConnect=1;" parent="1" vertex="1">
          <mxGeometry x="565" y="390" width="10" height="10" as="geometry" />
        </mxCell>
        <mxCell id="EHBrAv36b-auMUil9Wdh-139" value="" style="rounded=0;orthogonalLoop=1;jettySize=auto;html=1;endArrow=halfCircle;endFill=0;endSize=6;strokeWidth=1;sketch=0;exitX=1;exitY=0.75;exitDx=0;exitDy=0;" parent="1" source="EHBrAv36b-auMUil9Wdh-65" edge="1">
          <mxGeometry relative="1" as="geometry">
            <mxPoint x="590" y="395" as="sourcePoint" />
            <mxPoint x="350" y="540" as="targetPoint" />
            <Array as="points">
              <mxPoint x="290" y="205" />
              <mxPoint x="290" y="540" />
            </Array>
          </mxGeometry>
        </mxCell>
        <mxCell id="EHBrAv36b-auMUil9Wdh-140" value="" style="rounded=0;orthogonalLoop=1;jettySize=auto;html=1;endArrow=oval;endFill=0;sketch=0;sourcePerimeterSpacing=0;targetPerimeterSpacing=0;endSize=10;" parent="1" edge="1">
          <mxGeometry relative="1" as="geometry">
            <mxPoint x="350" y="610" as="sourcePoint" />
            <mxPoint x="350" y="540" as="targetPoint" />
          </mxGeometry>
        </mxCell>
        <mxCell id="EHBrAv36b-auMUil9Wdh-141" value="" style="ellipse;whiteSpace=wrap;html=1;align=center;aspect=fixed;fillColor=none;strokeColor=none;resizable=0;perimeter=centerPerimeter;rotatable=0;allowArrows=0;points=[];outlineConnect=1;" parent="1" vertex="1">
          <mxGeometry x="565" y="390" width="10" height="10" as="geometry" />
        </mxCell>
        <mxCell id="EHBrAv36b-auMUil9Wdh-142" value="" style="rounded=0;orthogonalLoop=1;jettySize=auto;html=1;endArrow=halfCircle;endFill=0;endSize=6;strokeWidth=1;sketch=0;exitX=0.5;exitY=0;exitDx=0;exitDy=0;" parent="1" source="EHBrAv36b-auMUil9Wdh-64" edge="1">
          <mxGeometry relative="1" as="geometry">
            <mxPoint x="720" y="265" as="sourcePoint" />
            <mxPoint x="540" y="80" as="targetPoint" />
            <Array as="points">
              <mxPoint x="800" y="80" />
            </Array>
          </mxGeometry>
        </mxCell>
        <mxCell id="EHBrAv36b-auMUil9Wdh-143" value="" style="rounded=0;orthogonalLoop=1;jettySize=auto;html=1;endArrow=oval;endFill=0;sketch=0;sourcePerimeterSpacing=0;targetPerimeterSpacing=0;endSize=10;exitX=0.625;exitY=0;exitDx=0;exitDy=0;exitPerimeter=0;" parent="1" source="EHBrAv36b-auMUil9Wdh-46" edge="1">
          <mxGeometry relative="1" as="geometry">
            <mxPoint x="680" y="265" as="sourcePoint" />
            <mxPoint x="540" y="80" as="targetPoint" />
            <Array as="points">
              <mxPoint x="525" y="80" />
            </Array>
          </mxGeometry>
        </mxCell>
        <mxCell id="EHBrAv36b-auMUil9Wdh-144" value="" style="ellipse;whiteSpace=wrap;html=1;align=center;aspect=fixed;fillColor=none;strokeColor=none;resizable=0;perimeter=centerPerimeter;rotatable=0;allowArrows=0;points=[];outlineConnect=1;" parent="1" vertex="1">
          <mxGeometry x="695" y="260" width="10" height="10" as="geometry" />
        </mxCell>
      </root>
    </mxGraphModel>
  </diagram>
</mxfile>
